<?xml version="1.0" standalone="no"?>
<!DOCTYPE svg PUBLIC "-//W3C//DTD SVG 20010904//EN"
 "http://www.w3.org/TR/2001/REC-SVG-20010904/DTD/svg10.dtd">
<svg version="1.0" xmlns="http://www.w3.org/2000/svg"
 width="176.000000pt" height="176.000000pt" viewBox="0 0 176.000000 176.000000"
 preserveAspectRatio="xMidYMid meet">
<metadata>
Created by potrace 1.14, written by Peter Selinger 2001-2017
</metadata>
<g transform="translate(0.000000,176.000000) scale(0.100000,-0.100000)"
fill="#000000" stroke="none">
<path d="M1145 1583 l-170 -158 63 -3 62 -3 0 -386 c0 -372 -1 -388 -21 -430
-44 -90 -140 -144 -258 -142 -114 1 -200 50 -244 140 l-27 53 0 402 c0 222 -4
405 -8 408 -5 3 -18 2 -30 -1 l-22 -5 0 -402 c0 -457 1 -461 76 -545 65 -72
136 -104 243 -109 70 -3 96 0 142 17 68 26 139 86 176 149 24 41 28 60 31 149
l4 103 30 0 30 0 -4 -102 c-3 -85 -8 -113 -30 -160 -35 -75 -104 -142 -186
-181 -63 -30 -74 -32 -177 -32 -105 0 -114 2 -177 33 -80 39 -149 106 -186
181 l-27 56 -3 420 c-2 231 -7 424 -11 428 -5 5 -18 6 -30 2 -21 -6 -21 -9
-21 -404 0 -440 3 -470 63 -570 77 -129 230 -211 392 -211 182 0 344 99 417
257 28 59 32 80 36 175 l5 108 28 0 29 0 0 -87 c-1 -162 -37 -251 -144 -359
-105 -105 -224 -154 -371 -154 -236 0 -442 155 -500 375 -12 49 -15 133 -15
468 l0 408 -28 -3 -27 -3 -3 -390 c-3 -434 2 -487 52 -592 68 -140 178 -238
326 -290 274 -95 591 28 712 277 44 91 58 155 58 265 l0 85 30 0 30 0 0 -82
c-1 -182 -56 -324 -174 -443 -225 -227 -566 -258 -834 -77 -107 73 -186 178
-234 312 -22 64 -23 75 -26 503 l-3 438 -27 -3 -27 -3 0 -430 c0 -480 2 -493
71 -626 69 -131 169 -226 309 -294 200 -97 414 -99 613 -5 146 70 251 170 320
305 66 131 66 129 70 587 l3 417 70 3 70 3 -170 158 c-93 86 -171 157 -173
157 -2 0 -80 -71 -173 -157z"/>
</g>
</svg>
